<?xml version="1.0" encoding="utf-8"?>
<!-- Generator: Adobe Illustrator 23.0.1, SVG Export Plug-In . SVG Version: 6.00 Build 0)  -->
<svg version="1.1" id="Layer_1" xmlns="http://www.w3.org/2000/svg" xmlns:xlink="http://www.w3.org/1999/xlink" x="0px" y="0px"
	 viewBox="0 0 821 238" style="enable-background:new 0 0 821 238;" xml:space="preserve">
<style type="text/css">
	.st0{fill:none;}
	.st1{fill:none;stroke:#FFFFFF;stroke-width:3;stroke-miterlimit:10;}
</style>
<g>
	<rect x="8.29" y="15" class="st0" width="901.71" height="170"/>
	<path class="st1" d="M180.09,101.8c-5.2,4.67-10.77,8.27-16.7,10.8c-5.93,2.53-11.63,3.8-17.1,3.8c-6.27,0-11.93-0.93-17-2.8
		c-4.27,5.33-9,10.63-14.2,15.9c-5.2,5.27-10.77,9.97-16.7,14.1c-5.93,4.13-12.23,7.47-18.9,10c-6.67,2.53-13.6,3.8-20.8,3.8
		c-6.67,0-12.23-1-16.7-3c-4.47-2-8.07-4.7-10.8-8.1c-2.73-3.4-4.67-7.27-5.8-11.6c-1.13-4.33-1.7-8.9-1.7-13.7
		c0-7.33,1.17-14.87,3.5-22.6c2.33-7.73,5.6-15.23,9.8-22.5c4.2-7.27,9.17-14.2,14.9-20.8c5.73-6.6,11.93-12.43,18.6-17.5
		c6.67-5.07,13.7-9.27,21.1-12.6c7.4-3.33,14.83-5.33,22.3-6c4.27-4,8.17-6.53,11.7-7.6c3.53-1.07,6.9-1.6,10.1-1.6
		c8,0,13.9,3,17.7,9c3.8,6,5.7,13.67,5.7,23c0,5.87-0.83,11.97-2.5,18.3c-1.67,6.33-3.83,12.53-6.5,18.6
		c-2.67,6.07-5.67,11.93-9,17.6c-3.33,5.67-6.67,10.77-10,15.3c2.27,1.07,4.63,1.73,7.1,2c2.47,0.27,5.03,0.4,7.7,0.4
		c3.2,0,6.37-0.4,9.5-1.2c3.13-0.8,6.17-1.87,9.1-3.2c2.93-1.33,5.63-2.8,8.1-4.4c2.47-1.6,4.57-3.2,6.3-4.8L180.09,101.8z
		 M94.69,63.6c0-7.73,1.5-15.23,4.5-22.5c3-7.27,7.1-13.7,12.3-19.3l-0.4-0.4c-6.67,1.33-12.93,3.9-18.8,7.7
		c-5.87,3.8-11.3,8.4-16.3,13.8c-5,5.4-9.47,11.43-13.4,18.1c-3.93,6.67-7.27,13.53-10,20.6c-2.73,7.07-4.83,14.1-6.3,21.1
		c-1.47,7-2.2,13.63-2.2,19.9c0,4,0.33,7.87,1,11.6c0.67,3.73,1.77,7.03,3.3,9.9c1.53,2.87,3.6,5.17,6.2,6.9
		c2.6,1.73,5.83,2.6,9.7,2.6c5.87,0,11.67-1.43,17.4-4.3c5.73-2.87,11.17-6.43,16.3-10.7c5.13-4.27,9.73-8.97,13.8-14.1
		c4.07-5.13,7.37-9.97,9.9-14.5c-4.13-2.27-7.87-5.03-11.2-8.3c-3.33-3.27-6.17-6.93-8.5-11c-2.33-4.07-4.13-8.4-5.4-13
		C95.32,73.1,94.69,68.4,94.69,63.6z M129.09,42.6c0.27-0.8,0.47-1.93,0.6-3.4c0.13-1.47,0.2-2.8,0.2-4c0-1.87-0.27-3.7-0.8-5.5
		c-0.53-1.8-1.4-3.33-2.6-4.6c-1.2-1.27-2.77-2.27-4.7-3c-1.93-0.73-4.37-1.03-7.3-0.9c-2,2.13-3.73,4.7-5.2,7.7
		c-1.47,3-2.7,6.2-3.7,9.6c-1,3.4-1.73,6.87-2.2,10.4c-0.47,3.53-0.7,6.83-0.7,9.9c0,4.4,0.33,9,1,13.8c0.67,4.8,1.8,9.43,3.4,13.9
		c1.6,4.47,3.7,8.57,6.3,12.3c2.6,3.73,5.9,6.73,9.9,9c2.93-4.8,5.63-10.03,8.1-15.7c2.47-5.67,4.57-11.47,6.3-17.4
		c1.73-5.93,3.07-11.87,4-17.8c0.93-5.93,1.4-11.63,1.4-17.1c0-3.47-0.27-6.73-0.8-9.8c-0.53-3.07-1.4-5.75-2.6-8.06
		c-1.2-2.31-2.8-4.11-4.8-5.4c-2-1.29-4.47-1.94-7.4-1.94c-2.4,0-4.47,0.39-6.2,1.16c-1.73,0.77-3.27,1.8-4.6,3.08
		c2.93,0.13,5.4,0.66,7.4,1.58c2,0.92,3.6,2.15,4.8,3.68c1.2,1.53,2.07,3.3,2.6,5.3c0.53,2,0.8,4,0.8,6c0,1.6-0.1,2.97-0.3,4.1
		c-0.2,1.13-0.43,2.23-0.7,3.3L129.09,42.6z"/>
	<path class="st1" d="M247.69,14.4l-61.8,98.4c-5.2,8.4-9.33,15.37-12.4,20.9c-3.07,5.53-4.6,10.03-4.6,13.5c0,3.6,1.47,5.4,4.4,5.4
		c2.8,0,6.6-1.53,11.4-4.6c4.8-3.07,9.93-7.33,15.4-12.8c5.07-5.06,10.07-10.47,15-16.2c4.93-5.73,9.73-11.67,14.4-17.8l1.8,0.6
		c-1.6,2.13-3.43,4.53-5.5,7.2c-2.07,2.67-4.23,5.37-6.5,8.1c-2.27,2.73-4.57,5.47-6.9,8.2c-2.33,2.73-4.63,5.23-6.9,7.5
		c-7.73,7.87-14.57,13.73-20.5,17.6c-5.93,3.87-12.1,5.8-18.5,5.8c-9.07,0-13.6-4-13.6-12c0-3.73,1.37-8.43,4.1-14.1
		c2.73-5.67,6.97-13.3,12.7-22.9l55.8-91.6L247.69,14.4z"/>
	<path class="st1" d="M329.89,16.2l22.4-1.2c-4.4,7.2-9.43,15.17-15.1,23.9c-5.67,8.73-11.47,17.63-17.4,26.7
		c-5.93,9.07-11.77,18.03-17.5,26.9c-5.73,8.87-10.83,17.07-15.3,24.6c-4.47,7.53-8.07,14.1-10.8,19.7c-2.73,5.6-4.1,9.67-4.1,12.2
		c0,1.47,0.33,2.63,1,3.5c0.67,0.87,1.73,1.3,3.2,1.3c2.8,0,6.63-1.4,11.5-4.2c4.87-2.8,10.3-7.33,16.3-13.6
		c4.93-5.07,9.67-10.3,14.2-15.7c4.53-5.4,9.47-11.63,14.8-18.7l2,1c-1.47,2-3.23,4.33-5.3,7c-2.07,2.67-4.3,5.47-6.7,8.4
		c-2.4,2.93-4.9,5.9-7.5,8.9c-2.6,3-5.17,5.83-7.7,8.5c-6.4,6.67-12.53,12-18.4,16c-5.87,4-12.13,6-18.8,6c-3.07,0-5.57-0.5-7.5-1.5
		c-1.93-1-3.47-2.3-4.6-3.9c-1.13-1.6-1.83-3.33-2.1-5.2c-0.27-1.87-0.2-3.67,0.2-5.4l-0.4-0.4c-4.13,4.27-8.67,7.87-13.6,10.8
		c-4.93,2.93-10.6,4.4-17,4.4c-3.2,0-5.9-0.57-8.1-1.7c-2.2-1.13-4-2.67-5.4-4.6c-1.4-1.93-2.4-4.13-3-6.6
		c-0.6-2.47-0.9-5.03-0.9-7.7c0-6.67,1.73-13.3,5.2-19.9c3.47-6.6,7.93-12.5,13.4-17.7c5.47-5.2,11.53-9.4,18.2-12.6
		c6.67-3.2,13.27-4.8,19.8-4.8c8.93,0,14.93,4.27,18,12.8L329.89,16.2z M237.29,149.4c4.27,0,8.7-2.03,13.3-6.1
		c4.6-4.07,8.8-9,12.6-14.8c3.8-5.8,6.9-11.83,9.3-18.1c2.4-6.27,3.6-11.67,3.6-16.2c0-3.87-1-6.7-3-8.5s-4.53-2.7-7.6-2.7
		c-4.13,0-8.43,1.9-12.9,5.7c-4.47,3.8-8.57,8.43-12.3,13.9c-3.73,5.47-6.8,11.33-9.2,17.6c-2.4,6.27-3.6,11.87-3.6,16.8
		c0,3.2,0.73,6.07,2.2,8.6C231.15,148.13,233.69,149.4,237.29,149.4z"/>
	<path class="st1" d="M354.08,119.2c0-2.53,0.33-5,1-7.4c0.67-2.4,1.7-4.57,3.1-6.5c1.4-1.93,3.13-3.47,5.2-4.6
		c2.07-1.13,4.5-1.7,7.3-1.7c2.67,0,5.1,0.77,7.3,2.3c2.2,1.53,3.3,3.77,3.3,6.7c0,3.6-1.3,6.37-3.9,8.3
		c-2.6,1.93-5.57,2.97-8.9,3.1c-0.67,1.87-1.1,3.73-1.3,5.6c-0.2,1.87-0.3,3.73-0.3,5.6c0,4.54,1.1,8.37,3.3,11.5
		c2.2,3.13,5,5.63,8.4,7.5c3.4,1.87,7.17,3.23,11.3,4.1c4.13,0.87,8.07,1.3,11.8,1.3c6.67,0,12.43-1.2,17.3-3.6
		c4.87-2.4,9.03-5.63,12.5-9.7c3.47-4.06,6.3-8.7,8.5-13.9c2.2-5.2,3.93-10.67,5.2-16.4c1.27-5.73,2.17-11.5,2.7-17.3
		c0.53-5.8,0.93-11.23,1.2-16.3c0.4-9.2,1.67-17.93,3.8-26.2c2.13-8.27,5.3-15.5,9.5-21.7c4.2-6.2,9.47-11.1,15.8-14.7
		c6.33-3.6,13.9-5.4,22.7-5.4c3.73,0,7.37,0.37,10.9,1.1c3.53,0.73,6.63,1.97,9.3,3.7c2.67,1.73,4.83,3.9,6.5,6.5
		c1.67,2.6,2.5,5.83,2.5,9.7c0,3.2-0.63,5.9-1.9,8.1c-1.27,2.2-2.94,3.93-5,5.2c-2.07,1.27-4.47,2.2-7.2,2.8
		c-2.73,0.6-5.57,0.9-8.5,0.9c1.87-3.07,3.3-6.07,4.3-9c1-2.93,1.5-6.27,1.5-10c0-5.07-1.37-9.1-4.1-12.1c-2.73-3-6.3-4.5-10.7-4.5
		c-5.2,0-9.5,1.27-12.9,3.8c-3.4,2.53-6.23,5.97-8.5,10.3c-2.27,4.33-4,9.4-5.2,15.2c-1.2,5.8-2.2,11.93-3,18.4
		c-0.8,6.47-1.47,13.1-2,19.9c-0.53,6.8-1.2,13.47-2,20c-0.67,5.73-2.2,11.93-4.6,18.6c-2.4,6.67-6.07,12.9-11,18.7
		c-4.93,5.8-11.37,10.63-19.3,14.5c-7.93,3.87-17.77,5.8-29.5,5.8c-5.73,0-11.4-0.77-17-2.3c-5.6-1.53-10.57-3.9-14.9-7.1
		c-4.33-3.2-7.83-7.2-10.5-12C355.42,131.2,354.08,125.6,354.08,119.2z"/>
	<path class="st1" d="M548.48,43.8l-46.2,70.4l0.4,0.4c2.8-3.33,5.77-7,8.9-11c3.13-4,6.53-7.7,10.2-11.1
		c3.67-3.4,7.6-6.23,11.8-8.5c4.2-2.27,8.77-3.4,13.7-3.4c4.8,0,8.67,1.57,11.6,4.7c2.93,3.13,4.4,7.23,4.4,12.3
		c0,6.53-1.4,12.73-4.2,18.6c-2.8,5.87-6.2,10.93-10.2,15.2l0.4,0.4c4.53-0.93,8.96-2.43,13.3-4.5c4.33-2.07,8.5-4.53,12.5-7.4
		c4-2.87,7.73-6,11.2-9.4c3.46-3.4,6.6-6.83,9.4-10.3l1.4,1.4c-2.53,3.2-5.53,6.53-9,10c-3.47,3.47-7.3,6.77-11.5,9.9
		c-4.2,3.13-8.8,5.87-13.8,8.2c-5,2.33-10.3,3.97-15.9,4.9c-2.67,2.4-5.67,4.93-9,7.6c-3.33,2.67-6.87,5.13-10.6,7.4
		c-3.73,2.27-7.54,4.13-11.4,5.6c-3.87,1.47-7.67,2.2-11.4,2.2c-2.8,0-5.23-0.57-7.3-1.7c-2.07-1.13-3.1-3.03-3.1-5.7
		c0-2.8,1.37-5.1,4.1-6.9c2.73-1.8,6.03-3.27,9.9-4.4c3.87-1.13,7.9-2.03,12.1-2.7c4.2-0.67,7.7-1.2,10.5-1.6
		c1.2-1.6,2.57-3.63,4.1-6.1c1.53-2.47,3-5.23,4.4-8.3c1.4-3.07,2.57-6.37,3.5-9.9c0.93-3.53,1.4-7.17,1.4-10.9
		c0-1.47-0.1-2.9-0.3-4.3c-0.2-1.4-0.6-2.67-1.2-3.8c-0.6-1.13-1.43-2.03-2.5-2.7c-1.07-0.67-2.47-1-4.2-1c-4,0-8.67,2.6-14,7.8
		c-5.33,5.2-11,11.9-17,20.1c-6,8.2-12.1,17.33-18.3,27.4c-6.2,10.07-12.17,19.93-17.9,29.6c-5.73,9.67-10.97,18.6-15.7,26.8
		c-4.73,8.2-8.63,14.57-11.7,19.1l-21.2,0.8c17.87-28.8,35.7-57.8,53.5-87s35.57-58.27,53.3-87.2L548.48,43.8z M501.68,149.4
		c0,2.93,1.87,4.4,5.6,4.4c1.87,0,3.83-0.6,5.9-1.8c2.07-1.2,4.1-2.63,6.1-4.3c2-1.67,3.87-3.46,5.6-5.4c1.73-1.93,3.2-3.7,4.4-5.3
		c-1.73,0.27-4.17,0.67-7.3,1.2c-3.13,0.54-6.2,1.23-9.2,2.1c-3,0.87-5.6,2.03-7.8,3.5C502.79,145.27,501.68,147.13,501.68,149.4z"
		/>
	<path class="st1" d="M621.68,83.8c-6.27,9.87-11.67,18.3-16.2,25.3c-4.54,7-8.23,12.97-11.1,17.9c-2.87,4.93-5,8.97-6.4,12.1
		c-1.4,3.13-2.1,5.7-2.1,7.7c0,1.6,0.3,2.9,0.9,3.9c0.6,1,1.5,1.5,2.7,1.5c2.67,0,6.43-1.53,11.3-4.6
		c4.87-3.07,10.97-8.33,18.3-15.8c2.93-3.07,5.8-6.1,8.6-9.1c2.8-3,5.43-5.9,7.9-8.7c2.47-2.8,4.67-5.33,6.6-7.6
		c1.93-2.27,3.5-4.07,4.7-5.4l1.8,1.2c-1.6,2.13-3.57,4.57-5.9,7.3c-2.33,2.73-4.83,5.6-7.5,8.6c-2.67,3-5.4,5.97-8.2,8.9
		c-2.8,2.93-5.53,5.73-8.2,8.4c-7.73,7.73-14.37,13.13-19.9,16.2c-5.54,3.07-10.63,4.6-15.3,4.6c-4.4,0-7.8-1.2-10.2-3.6
		c-2.4-2.4-3.6-5.53-3.6-9.4c0-2.67,0.5-5.43,1.5-8.3c1-2.87,2.7-6.43,5.1-10.7c2.4-4.27,5.6-9.57,9.6-15.9c4-6.33,9-14.17,15-23.5
		L621.68,83.8z M633.28,39.4c2.53,0,4.77,0.93,6.7,2.8c1.93,1.87,2.9,4.07,2.9,6.6c0,2.67-1.07,5.1-3.2,7.3
		c-2.13,2.2-4.53,3.3-7.2,3.3c-2.93,0-5.47-0.77-7.6-2.3c-2.13-1.53-3.2-3.83-3.2-6.9c0-3.07,1.17-5.63,3.5-7.7
		C627.51,40.43,630.21,39.4,633.28,39.4z"/>
	<path class="st1" d="M729.88,102.6c-4.93,6-10.27,12.23-16,18.7c-5.73,6.47-11.9,12.37-18.5,17.7c-6.6,5.33-13.67,9.73-21.2,13.2
		c-7.53,3.47-15.5,5.2-23.9,5.2c-8,0-14.13-2.17-18.4-6.5c-4.27-4.33-6.4-10.7-6.4-19.1c0-6.4,1.87-12.67,5.6-18.8
		c3.73-6.13,8.53-11.6,14.4-16.4c5.87-4.8,12.33-8.67,19.4-11.6c7.07-2.93,13.93-4.4,20.6-4.4c6.13,0,11,1.23,14.6,3.7
		c3.6,2.47,5.4,5.5,5.4,9.1c0,2.53-0.5,4.83-1.5,6.9c-1,2.07-2.3,3.8-3.9,5.2c-1.6,1.4-3.4,2.47-5.4,3.2c-2,0.73-4,1.1-6,1.1
		c-1.73,0-3.27-0.13-4.6-0.4c0.93-3.07,1.93-6.2,3-9.4c1.07-3.2,1.6-6.4,1.6-9.6c0-2.27-0.53-4.07-1.6-5.4c-1.07-1.33-2.53-2-4.4-2
		c-3.47,0-7.4,1.37-11.8,4.1c-4.4,2.73-8.53,6.4-12.4,11c-3.87,4.6-7.13,9.87-9.8,15.8c-2.67,5.93-4,12.1-4,18.5
		c0,5.07,1.53,9.37,4.6,12.9c3.07,3.53,7.33,5.3,12.8,5.3c6.53,0,13.03-1.8,19.5-5.4c6.47-3.6,12.6-7.96,18.4-13.1
		c5.8-5.13,11.1-10.47,15.9-16c4.8-5.53,8.87-10.3,12.2-14.3L729.88,102.6z"/>
	<path class="st1" d="M811.28,101.8c-4.13,5.6-8.57,11.13-13.3,16.6c-4.73,5.47-10.37,11.2-16.9,17.2
		c-9.2,8.27-18.03,13.97-26.5,17.1c-8.47,3.13-16.43,4.7-23.9,4.7c-7.6,0-13.6-2.27-18-6.8c-4.4-4.53-6.6-10.4-6.6-17.6
		c0-6.4,1.93-12.73,5.8-19c3.87-6.27,8.73-11.87,14.6-16.8c5.87-4.93,12.3-8.93,19.3-12c7-3.07,13.63-4.6,19.9-4.6
		c5.73,0,10.2,1.1,13.4,3.3c3.2,2.2,4.8,5.3,4.8,9.3c0,3.2-1.1,6.13-3.3,8.8c-2.2,2.67-5.03,5.07-8.5,7.2
		c-3.47,2.13-7.37,4-11.7,5.6c-4.33,1.6-8.63,3-12.9,4.2c-4.27,1.2-8.27,2.2-12,3c-3.73,0.8-6.8,1.47-9.2,2c-0.67,2.67-1,5.07-1,7.2
		c0,5.73,1.6,10.4,4.8,14c3.2,3.6,7.67,5.4,13.4,5.4c5.6,0,11.77-1.67,18.5-5c6.73-3.33,13.5-8.2,20.3-14.6
		c5.2-4.93,10.2-10.1,15-15.5c4.8-5.4,9-10.43,12.6-15.1L811.28,101.8z M767.88,88.2c0-1.87-0.5-3.2-1.5-4s-2.3-1.2-3.9-1.2
		c-3.33,0-6.93,1.4-10.8,4.2c-3.87,2.8-7.5,6.23-10.9,10.3c-3.4,4.07-6.4,8.33-9,12.8c-2.6,4.47-4.3,8.37-5.1,11.7
		c5.46-1.07,10.67-2.83,15.6-5.3c4.93-2.47,9.3-5.27,13.1-8.4c3.8-3.13,6.83-6.47,9.1-10C766.75,94.77,767.88,91.4,767.88,88.2z"/>
</g>
<g>
</g>
<g>
</g>
<g>
</g>
<g>
</g>
<g>
</g>
<g>
</g>
<g>
</g>
<g>
</g>
<g>
</g>
<g>
</g>
<g>
</g>
<g>
</g>
<g>
</g>
<g>
</g>
<g>
</g>
</svg>
